<?xml version="1.0" encoding="utf-8"?>
<!-- Generator: Adobe Illustrator 24.3.0, SVG Export Plug-In . SVG Version: 6.00 Build 0)  -->
<svg version="1.1" id="Capa_1" xmlns="http://www.w3.org/2000/svg" xmlns:xlink="http://www.w3.org/1999/xlink" x="0px" y="0px"
	 viewBox="0 0 512 512" style="enable-background:new 0 0 512 512;" xml:space="preserve">
<style type="text/css">
	.st0{fill:#00E9FF;}
	.st1{fill:none;stroke:#000000;stroke-width:10;stroke-miterlimit:10;}
	.st2{fill:none;stroke:#000000;stroke-width:12;stroke-linecap:round;stroke-linejoin:round;stroke-miterlimit:133.3333;}
	.st3{fill-rule:evenodd;clip-rule:evenodd;}
</style>
<path class="st0" d="M80.8,69.6c0,0,135.1-1.9,175.2-50.3c0,0,137.2,74.4,181.4,46l0.5,262.7c0,0-43.7,137.6-175.7,169.7
	c0,0-181.8-61.7-185.5-162L80.8,69.6z"/>
<g>
	<path d="M439,53.6c-3.2-1.7-7-1.5-10,0.5c-6.4,4.3-33.4,7-71.1-0.5c-40-8-74.6-24.3-94.9-44.8c-1.8-1.8-4.3-2.9-6.9-2.9
		s-5.1,1-6.9,2.9c-20.4,20.4-54.9,36.8-94.9,44.8c-37.8,7.6-64.8,4.8-71.1,0.5c-3-2-6.9-2.2-10-0.5c-3.2,1.7-5.2,5-5.2,8.6v256.5
		c0,31.6,10,61.2,29.8,88c15.5,21.1,37,40.4,64,57.4c45.3,28.7,90,41,91.9,41.5c0.8,0.2,1.7,0.3,2.6,0.3c0.9,0,1.7-0.1,2.6-0.3
		c1.9-0.5,46.5-12.8,91.9-41.5c26.9-17.1,48.4-36.4,64-57.4c19.8-26.8,29.8-56.4,29.8-88V62.2C444.2,58.6,442.2,55.3,439,53.6
		L439,53.6z M424.6,318.8c0,49.8-28.4,93.1-84.3,128.7c-36.9,23.5-74.4,35.7-84.4,38.7c-10-3-47.5-15.2-84.4-38.7
		c-55.9-35.5-84.3-78.8-84.3-128.7V76c19,3.7,46.9,1.6,70.7-3.2c23.8-4.8,66.8-16.7,98-43.7c31.2,27.1,74.1,38.9,98,43.7
		c23.8,4.8,51.7,6.9,70.7,3.2L424.6,318.8z"/>
	<path d="M397.5,89.7c-18.3-0.9-82.4-6.4-136-40.6c-3.3-2.1-7.6-2.1-10.9,0c-53.7,34.2-117.7,39.7-136,40.6
		c-5.4,0.3-9.7,4.7-9.7,10.2v216.6c0,42.6,25.3,80.5,75.1,112.5c28.5,18.3,57.8,29.8,72.7,35c1.1,0.4,2.2,0.6,3.3,0.6
		s2.3-0.2,3.3-0.6c14.9-5.2,44.2-16.6,72.7-35c49.8-32.1,75.1-69.9,75.1-112.5V99.9C407.2,94.5,402.9,90,397.5,89.7z M386.8,316.4
		c0,35.2-22.1,67.3-65.8,95.4c-24.7,15.9-50.2,26.3-65.1,31.7c-14.8-5.3-40.3-15.8-65.1-31.7c-43.7-28.1-65.8-60.2-65.8-95.4v-207
		c26.1-2.2,81.6-10.3,130.8-39.7c49.3,29.5,104.7,37.5,130.8,39.7L386.8,316.4L386.8,316.4z"/>
	<line class="st1" x1="256" y1="69.6" x2="256" y2="443.5"/>
</g>
<path class="st2" d="M145.8,204.7v-64.4c0-5.6,0-8.5,1.1-10.6c1-1.9,2.5-3.4,4.4-4.4c2.2-1.1,5-1.1,10.6-1.1h48.3
	c5.6,0,8.5,0,10.6,1.1c1.9,1,3.4,2.5,4.4,4.4c1.1,2.2,1.1,5,1.1,10.6v54.3h-70.4C150.3,194.7,145.8,199.2,145.8,204.7z M145.8,204.7
	c0,5.6,4.5,10.1,10.1,10.1h70.4 M170.9,144.4h30.2 M170.9,164.5h30.2 M221.2,194.7v20.1"/>
<path d="M326.2,169.5v8.5c4.7,0,8.5-3.8,8.5-8.5H326.2z M326.2,169.5h-8.5c0,4.7,3.8,8.5,8.5,8.5V169.5z M326.2,169.5V161
	c-4.7,0-8.5,3.8-8.5,8.5H326.2z M326.2,169.5h8.5c0-4.7-3.8-8.5-8.5-8.5V169.5z M326.2,173.8L326.2,173.8v-8.5l0,0V173.8z
	 M338.3,181.6c-8.8,8.8-18.3,15.1-26.4,18.1c-8.4,3.2-13.6,2.3-15.9,0l-6,6c6.1,6.1,15.9,5.3,24.9,1.9c9.4-3.5,19.9-10.5,29.4-20
	L338.3,181.6z M296,199.7c-2.3-2.3-3.1-7.4,0-15.9c3-8,9.2-17.5,18.1-26.4l-6-6c-9.5,9.5-16.5,20-20,29.4c-3.4,9-4.2,18.8,1.9,24.9
	L296,199.7z M314.1,157.4c8.8-8.8,18.3-15.1,26.4-18.1c8.4-3.2,13.6-2.3,15.9,0l6-6c-6.1-6.1-15.9-5.3-24.9-1.9
	c-9.4,3.5-19.9,10.5-29.4,20L314.1,157.4z M356.4,139.3c2.3,2.3,3.1,7.4,0,15.9c-3,8-9.2,17.5-18.1,26.4l6,6
	c9.5-9.5,16.5-20,20-29.4c3.4-9,4.2-18.8-1.9-24.9L356.4,139.3z M338.3,157.4c8.8,8.8,15.1,18.3,18.1,26.4c3.2,8.4,2.3,13.6,0,15.9
	l6,6c6.1-6.1,5.3-15.9,1.9-24.9c-3.5-9.4-10.5-19.9-20-29.4L338.3,157.4z M356.4,199.7c-2.3,2.3-7.4,3.1-15.9,0
	c-8-3-17.5-9.2-26.4-18.1l-6,6c9.5,9.5,20,16.5,29.4,20c9,3.4,18.8,4.2,24.9-1.9L356.4,199.7z M314.1,181.6
	c-8.8-8.8-15.1-18.3-18.1-26.4c-3.2-8.4-2.3-13.6,0-15.9l-6-6c-6.1,6.1-5.3,15.9-1.9,24.9c3.5,9.4,10.5,19.9,20,29.4L314.1,181.6z
	 M296,139.3c2.3-2.3,7.4-3.1,15.9,0c8,3,17.5,9.2,26.4,18.1l6-6c-9.5-9.5-20-16.5-29.4-20c-9-3.4-18.8-4.2-24.9,1.9L296,139.3z"/>
<path class="st3" d="M138.3,284c0-8.2,6.7-14.9,14.9-14.9h69.4c8.2,0,14.9,6.7,14.9,14.9v44.6c0,8.2-6.7,14.9-14.9,14.9h-29.8v5h9.9
	c2.7,0,5,2.2,5,5s-2.2,5-5,5H173c-2.7,0-5-2.2-5-5s2.2-5,5-5h9.9v-5h-29.8c-8.2,0-14.9-6.7-14.9-14.9V284H138.3z M153.2,279.1
	c-2.7,0-5,2.2-5,5v44.6c0,2.7,2.2,5,5,5h69.4c2.7,0,5-2.2,5-5V284c0-2.7-2.2-5-5-5h-69.4L153.2,279.1L153.2,279.1z"/>
<path d="M318.2,272.9c-5.3-4-13-0.4-13.3,6.3l-0.4,9.6h12.7c3.1,0,5.5,2.5,5.5,5.5c0,3.1-2.5,5.5-5.5,5.5H304l-2.2,49
	c-0.7,16.2-19.9,24.4-32.1,13.7l-0.5-0.4c-2.3-2-2.5-5.5-0.5-7.8s5.5-2.5,7.8-0.5l0.5,0.4c5.2,4.6,13.5,1.1,13.8-5.9l2.2-48.5h-9
	c-3.1,0-5.5-2.5-5.5-5.5c0-3.1,2.5-5.5,5.5-5.5h9.5l0.4-10c0.7-15.6,18.5-24,31-14.6l1.2,0.9c2.4,1.8,2.9,5.3,1.1,7.8
	c-1.8,2.4-5.3,2.9-7.8,1.1L318.2,272.9z"/>
<path d="M323.1,322.2c1.4-0.8,3.2-0.2,3.8,1.2l4.5,9.6l-18.2,18.2c-2.2,2.2-2.2,5.7,0,7.8c2.2,2.2,5.7,2.2,7.8,0l15.4-15.4l4.3,9.2
	c3.8,8.2,14.4,10.5,21.3,4.8l2.8-2.3c2.4-1.9,2.7-5.4,0.7-7.8c-1.9-2.4-5.4-2.7-7.8-0.7l-2.8,2.3c-1.4,1.1-3.5,0.7-4.3-1l-6-12.8
	l15-15c2.2-2.2,2.2-5.7,0-7.8c-2.2-2.2-5.7-2.2-7.8,0l-12.2,12.2l-2.8-6c-3.4-7.2-12.2-10.1-19.2-6.2l-3.3,1.8
	c-2.7,1.5-3.7,4.8-2.2,7.5s4.8,3.7,7.5,2.2L323.1,322.2z"/>
<line class="st1" x1="123.4" y1="245.9" x2="389.1" y2="245.9"/>
</svg>
